<?xml-stylesheet type="text/css" href="/css/svg/noAuth.css"?>
<svg width="600" height="327" viewBox="0 0 600 327" fill="none" xmlns="http://www.w3.org/2000/svg">
<g id="warning">
<g id="computer">
<rect id="Rectangle 1" x="52.5" y="9.5" width="495" height="295" rx="22.5" fill="#C4C4C4" stroke="black" stroke-width="5"/>
<path id="Rectangle 2" d="M597.428 284.5C596.134 306.808 577.633 324.5 555 324.5H45C22.3671 324.5 3.86635 306.808 2.57231 284.5H597.428Z" fill="#C4C4C4" stroke="black" stroke-width="5"/>
<path id="Rectangle 4" d="M397.323 284.5C396.11 292.981 388.816 299.5 380 299.5H220C211.184 299.5 203.89 292.981 202.677 284.5H397.323Z" fill="#C4C4C4" stroke="black" stroke-width="5"/>
<rect id="Rectangle 3" x="77.5" y="37.5" width="445" height="245" fill="#FFDF38" stroke="black" stroke-width="5"/>
</g>
<g id="window">
<g id="Rectangle 5" filter="url(#filter0_d)">
<rect x="113" y="98" width="175" height="125" fill="white"/>
<rect x="115.5" y="100.5" width="170" height="120" stroke="black" stroke-width="5"/>
</g>
<g id="Vector 2" filter="url(#filter1_d)">
<path d="M200.5 149L221.5 128L235.5 142L215 163.5L235.5 185L221.5 198.5L200.5 177.5L179.5 198.5L165 185L186 163.5L165 142L179.5 128L200.5 149Z" fill="#CC0000"/>
<path d="M200.5 149L221.5 128L235.5 142L215 163.5L235.5 185L221.5 198.5L200.5 177.5L179.5 198.5L165 185L186 163.5L165 142L179.5 128L200.5 149Z" stroke="black" stroke-width="5"/>
</g>
<rect id="Rectangle 6" x="115.5" y="100.5" width="170" height="15" fill="#C4C4C4" stroke="black" stroke-width="5"/>
</g>
<g id="warning_bar">
<rect id="Rectangle 7" x="459.5" y="137.5" width="15" height="145" fill="#C4C4C4" stroke="black" stroke-width="5"/>
<rect id="Rectangle 8" x="451.5" y="127.5" width="30" height="15" fill="white" stroke="black" stroke-width="5"/>
<circle id="Ellipse 1" cx="466.5" cy="67.5" r="65" fill="#FF0000" stroke="black" stroke-width="5"/>
<path id="Vector 1" d="M416.343 64.3085C416.343 42.5402 437.5 17.5 463.54 17.5C467.186 17.5 467.993 12.7801 463.54 12C429 13.5 411 43 411 63.4894C411.891 68.1702 415.453 68.9894 416.343 64.3085Z" fill="#FF6E6E"/>
<rect id="Rectangle 9" x="434.5" y="54.5" width="65" height="25" fill="white" stroke="black" stroke-width="5"/>
</g>
</g>
<defs>
<filter id="filter0_d" x="109" y="98" width="183" height="133" filterUnits="userSpaceOnUse" color-interpolation-filters="sRGB">
<feFlood flood-opacity="0" result="BackgroundImageFix"/>
<feColorMatrix in="SourceAlpha" type="matrix" values="0 0 0 0 0 0 0 0 0 0 0 0 0 0 0 0 0 0 127 0"/>
<feOffset dy="4"/>
<feGaussianBlur stdDeviation="2"/>
<feColorMatrix type="matrix" values="0 0 0 0 0 0 0 0 0 0 0 0 0 0 0 0 0 0 0.25 0"/>
<feBlend mode="normal" in2="BackgroundImageFix" result="effect1_dropShadow"/>
<feBlend mode="normal" in="SourceGraphic" in2="effect1_dropShadow" result="shape"/>
</filter>
<filter id="filter1_d" x="157.422" y="124.464" width="85.6025" height="85.5392" filterUnits="userSpaceOnUse" color-interpolation-filters="sRGB">
<feFlood flood-opacity="0" result="BackgroundImageFix"/>
<feColorMatrix in="SourceAlpha" type="matrix" values="0 0 0 0 0 0 0 0 0 0 0 0 0 0 0 0 0 0 127 0"/>
<feOffset dy="4"/>
<feGaussianBlur stdDeviation="2"/>
<feColorMatrix type="matrix" values="0 0 0 0 0 0 0 0 0 0 0 0 0 0 0 0 0 0 0.25 0"/>
<feBlend mode="normal" in2="BackgroundImageFix" result="effect1_dropShadow"/>
<feBlend mode="normal" in="SourceGraphic" in2="effect1_dropShadow" result="shape"/>
</filter>
</defs>
</svg>
